<svg width="48" height="48" viewBox="0 0 48 48" fill="none" xmlns="http://www.w3.org/2000/svg">
<path fill-rule="evenodd" clip-rule="evenodd" d="M37.4757 40.104C33.7606 43.213 29.0848 44.9419 24.2408 44.9977C19.3967 45.0536 14.6823 43.433 10.8965 40.4105C7.11063 37.3881 4.48617 33.1497 3.46784 28.4135C2.4495 23.6774 3.09992 18.7349 5.30889 14.4234C7.51785 10.112 11.1495 6.69687 15.5884 4.75677C20.0273 2.81666 25.0005 2.4709 29.6651 3.77808C34.3298 5.08526 38.3991 7.96498 41.1834 11.9293C43.9678 15.8935 45.2959 20.6985 44.9427 25.53C45.9747 25.629 46.9827 25.971 47.8677 26.514C48.4547 20.9469 47.0771 15.3497 43.9734 10.6909C40.8696 6.03218 36.2349 2.60494 30.8713 1.00222C25.5076 -0.600492 19.7525 -0.277844 14.6016 1.91434C9.45068 4.10652 5.22813 8.03032 2.66454 13.0068C0.100956 17.9833 -0.642378 23.6994 0.563156 29.166C1.76869 34.6326 4.84725 39.5059 9.26615 42.9426C13.6851 46.3792 19.1663 48.1631 24.7615 47.9855C30.3566 47.8079 35.7137 45.68 39.9057 41.97C39.0594 41.3968 38.248 40.7737 37.4757 40.104ZM26.2827 30.444C25.1622 30.7128 24.0541 31.0311 22.9617 31.398C22.7725 31.4677 22.5711 31.4985 22.3696 31.4886C22.1681 31.4787 21.9707 31.4282 21.7892 31.3403C21.6077 31.2523 21.4458 31.1286 21.3132 30.9766C21.1806 30.8247 21.08 30.6475 21.0174 30.4557C20.9548 30.264 20.9316 30.0616 20.949 29.8606C20.9665 29.6597 21.0243 29.4643 21.119 29.2862C21.2137 29.1081 21.3433 28.9509 21.5001 28.8241C21.657 28.6973 21.8378 28.6034 22.0317 28.548C23.1717 28.173 24.4377 27.786 25.6077 27.519C26.7177 27.261 27.9477 27.06 28.9167 27.195C29.3967 27.261 30.0987 27.45 30.5997 28.053C31.1637 28.731 31.1607 29.544 30.9927 30.168C30.7909 30.8115 30.476 31.414 30.0627 31.947C29.8317 32.268 29.5587 32.607 29.2377 32.976C29.5587 33.348 29.8347 33.696 30.0657 34.017C30.4917 34.608 30.8337 35.208 30.9957 35.802C31.1607 36.426 31.1637 37.239 30.5997 37.92C30.0957 38.52 29.3877 38.706 28.9107 38.772C27.9417 38.901 26.7117 38.691 25.6047 38.433C24.3999 38.1378 23.2078 37.7925 22.0317 37.398C21.8378 37.3426 21.657 37.2487 21.5001 37.1219C21.3433 36.9951 21.2137 36.8379 21.119 36.6598C21.0243 36.4817 20.9665 36.2863 20.949 36.0854C20.9316 35.8844 20.9548 35.682 21.0174 35.4903C21.08 35.2985 21.1806 35.1213 21.3132 34.9694C21.4458 34.8174 21.6077 34.6937 21.7892 34.6057C21.9707 34.5178 22.1681 34.4673 22.3696 34.4574C22.5711 34.4475 22.7725 34.4783 22.9617 34.548C24.0747 34.908 25.2447 35.268 26.2887 35.511C26.8167 35.634 27.2637 35.718 27.6267 35.763C27.1655 35.1452 26.6623 34.5598 26.1207 34.011C25.8512 33.7305 25.7011 33.3563 25.7023 32.9673C25.7034 32.5783 25.8556 32.2049 26.1267 31.926C26.6661 31.3843 27.1673 30.8059 27.6267 30.195C27.1749 30.2541 26.7263 30.3392 26.2827 30.444ZM28.5807 30.183L28.5717 30.18L28.5627 30.177C28.5747 30.177 28.5807 30.183 28.5807 30.183ZM28.5867 35.784L28.5687 35.787C28.5746 35.7845 28.5806 35.7825 28.5867 35.781V35.784ZM17.9967 24C19.6527 24 20.9967 21.984 20.9967 19.5C20.9967 17.016 19.6527 15 17.9967 15C16.3407 15 14.9967 17.016 14.9967 19.5C14.9967 21.984 16.3407 24 17.9967 24ZM26.2677 22.311C26.4399 22.4067 26.6292 22.4676 26.8249 22.4902C27.0206 22.5128 27.2189 22.4966 27.4083 22.4425C27.5977 22.3885 27.7747 22.2976 27.929 22.1752C28.0833 22.0528 28.212 21.9012 28.3077 21.729C28.5446 21.2867 28.8959 20.9161 29.325 20.6559C29.754 20.3958 30.245 20.2556 30.7467 20.25C31.7637 20.25 32.6817 20.82 33.1857 21.729C33.3791 22.0767 33.7026 22.3334 34.0852 22.4425C34.4678 22.5516 34.878 22.5043 35.2257 22.311C35.5734 22.1177 35.8301 21.7941 35.9392 21.4115C36.0484 21.029 36.0011 20.6187 35.8077 20.271C35.3109 19.3613 34.5795 18.6013 33.6894 18.07C32.7994 17.5387 31.7833 17.2556 30.7467 17.25C28.5567 17.25 26.6787 18.486 25.6857 20.271C25.59 20.4432 25.5291 20.6325 25.5065 20.8282C25.484 21.0239 25.5002 21.2221 25.5542 21.4115C25.6083 21.601 25.6991 21.7779 25.8215 21.9322C25.944 22.0866 26.0956 22.2153 26.2677 22.311ZM41.9967 29.484C45.3267 26.064 53.6487 32.052 41.9967 39.75C30.3447 32.052 38.6667 26.064 41.9967 29.487V29.484Z" fill="white"/>
</svg>
